<svg t="1605451942898" class="icon" viewBox="0 0 1024 1024" version="1.1" xmlns="http://www.w3.org/2000/svg" p-id="1174" width="200" height="200"><path d="M511.79 512.57m-448.09 0a448.09 448.09 0 1 0 896.18 0 448.09 448.09 0 1 0-896.18 0Z" fill="#FCA235" p-id="1175"></path><path d="M554.3 313.63H418.22c-12.7 0-23-10.3-23-23V267.4c0-12.7 10.3-23 23-23H554.3c12.7 0 23 10.3 23 23v23.23c0 12.7-10.3 23-23 23z" fill="#FFFFFF" p-id="1176"></path><path d="M554.3 321.13H418.22c-16.82 0-30.5-13.68-30.5-30.5V267.4c0-16.82 13.68-30.5 30.5-30.5H554.3c16.82 0 30.5 13.68 30.5 30.5v23.23c0 16.82-13.68 30.5-30.5 30.5zM418.22 251.9c-8.55 0-15.5 6.95-15.5 15.5v23.23c0 8.55 6.95 15.5 15.5 15.5H554.3c8.55 0 15.5-6.95 15.5-15.5V267.4c0-8.55-6.95-15.5-15.5-15.5H418.22z" fill="#333333" p-id="1177"></path><path d="M274.68 361.68c-84.08 0-152.25 68.16-152.25 152.25 0 84.08 68.16 152.25 152.25 152.25s152.25-68.16 152.25-152.25c-0.01-84.09-68.17-152.25-152.25-152.25z m-1.86 235.69c-47.92 0-86.77-38.85-86.77-86.77s38.85-86.77 86.77-86.77 86.77 38.85 86.77 86.77-38.85 86.77-86.77 86.77z" fill="#FFFFFF" p-id="1178"></path><path d="M274.68 673.68c-88.09 0-159.75-71.66-159.75-159.75s71.66-159.75 159.75-159.75 159.75 71.66 159.75 159.75c-0.01 88.08-71.67 159.75-159.75 159.75z m0-304.5c-79.81 0-144.75 64.93-144.75 144.75s64.93 144.75 144.75 144.75 144.75-64.93 144.75-144.75-64.94-144.75-144.75-144.75z m-1.86 235.69c-51.98 0-94.27-42.29-94.27-94.27s42.29-94.27 94.27-94.27 94.27 42.29 94.27 94.27-42.29 94.27-94.27 94.27z m0-173.55c-43.71 0-79.27 35.56-79.27 79.27 0 43.71 35.56 79.27 79.27 79.27s79.27-35.56 79.27-79.27c0-43.7-35.56-79.27-79.27-79.27z" fill="#333333" p-id="1179"></path><path d="M669.81 726.06l-106.08-68.81 215.98-265.02 74.3 49.82z" fill="#FFFFFF" p-id="1180"></path><path d="M672.02 736.43L552.63 659l225.58-276.8 86.11 57.74-192.3 296.49z m-97.2-80.92l92.78 60.17 176.1-271.52-62.49-41.9-206.39 253.25z" fill="#333333" p-id="1181"></path><path d="M641.31 774.02h-310.1c-30.91 0-55.45-26.02-53.64-56.87l22.16-378.29c1.66-28.41 25.18-50.59 53.64-50.59h265.78c28.45 0 51.98 22.18 53.64 50.59l22.16 378.29c1.8 30.85-22.73 56.87-53.64 56.87z" fill="#FFFFFF" p-id="1182"></path><path d="M641.31 781.52h-310.1c-17.04 0-32.86-6.83-44.55-19.22-11.69-12.39-17.58-28.58-16.58-45.59l22.16-378.29c1.89-32.33 28.74-57.65 61.13-57.65h265.78c32.38 0 59.23 25.32 61.13 57.65l22.16 378.29c1 17.01-4.89 33.2-16.58 45.59s-27.52 19.22-44.55 19.22zM353.37 295.77c-24.45 0-44.72 19.12-46.15 43.53l-22.16 378.29c-0.75 12.84 3.69 25.07 12.52 34.42s20.77 14.51 33.63 14.51H641.3c12.86 0 24.81-5.15 33.63-14.51 8.83-9.36 13.27-21.58 12.52-34.42l-22.15-378.3c-1.43-24.41-21.7-43.53-46.15-43.53H353.37z" fill="#333333" p-id="1183"></path><path d="M696.23 719.7l-22.48-383.84c-1.58-26.94-23.88-47.98-50.87-47.98h-4.95l22.33 381.25c1.71 29.26-21.55 53.93-50.87 53.93H278.44c0.18 27.76 22.76 50.57 50.94 50.57h315.98c29.32 0 52.59-24.67 50.87-53.93z" fill="#55C2FF" p-id="1184"></path><path d="M286.19 730.18c3.56 20.59 21.62 36.34 43.19 36.34h315.98c12.2 0 23.52-4.89 31.89-13.76 8.37-8.87 12.59-20.47 11.87-32.65l-22.48-383.84c-1.3-22.28-19.16-39.91-41.17-41.2l-2.59-14.3c30.71 0 56.17 24.01 57.97 54.67l22.48 383.84c0.94 16.13-4.64 31.48-15.72 43.24-11.09 11.75-26.09 18.23-42.24 18.23H329.39c-31.8 0-57.85-25.85-58.06-57.63l7.11-0.05h5.98l1.77 7.11z" fill="#333333" p-id="1185"></path><path d="M677.28 431.26H294.32l5.62-95.37c1.58-26.83 23.79-47.77 50.67-47.77h271.52c27.1 0 49.42 21.29 50.7 48.37l4.45 94.77z" fill="#F75439" p-id="1186"></path><path d="M685.14 438.76H286.36l6.08-103.31c1.81-30.75 27.36-54.83 58.15-54.83h271.52c31.16 0 56.72 24.38 58.19 55.51l4.84 102.63z m-382.87-15h367.15l-4.09-86.92c-1.09-23.11-20.07-41.22-43.21-41.22H350.6c-22.87 0-41.84 17.88-43.18 40.71l-5.15 87.43z" fill="#333333" p-id="1187"></path><path d="M465.26 383.4H355.62c-11.6 0-21-9.4-21-21v-5.42c0-11.6 9.4-21 21-21h109.64c11.6 0 21 9.4 21 21v5.42c0 11.6-9.4 21-21 21z" fill="#FFFFFF" p-id="1188"></path><path d="M625.33 743.76H515.69c-11.6 0-21-9.4-21-21v-5.42c0-11.6 9.4-21 21-21h109.64c11.6 0 21 9.4 21 21v5.42c0 11.6-9.4 21-21 21z" fill="#333333" p-id="1189"></path><path d="M625.33 383.4h-5.42c-11.6 0-21-9.4-21-21v-5.42c0-11.6 9.4-21 21-21h5.42c11.6 0 21 9.4 21 21v5.42c0 11.6-9.4 21-21 21z" fill="#FFFFFF" p-id="1190"></path><path d="M878.08 466.18l-139.01-92.43c-4.84-3.22-6.15-9.75-2.94-14.59l3.67-5.52c12.51-18.81 37.9-23.92 56.71-11.41l88.41 58.79c18.81 12.51 23.92 37.9 11.41 56.71l-3.67 5.52c-3.21 4.84-9.74 6.15-14.58 2.93z" fill="#FFFFFF" p-id="1191"></path><path d="M883.88 475.44c-3.43 0-6.89-0.97-9.95-3.01L734.92 380c-4.01-2.67-6.74-6.73-7.69-11.45-0.95-4.72 0-9.53 2.66-13.54l3.67-5.52c7.16-10.77 18.08-18.1 30.76-20.65 12.67-2.55 25.58-0.01 36.35 7.15l88.41 58.79c10.77 7.16 18.1 18.08 20.65 30.76s0.01 25.59-7.15 36.35l-3.67 5.52c-3.46 5.2-9.2 8.03-15.03 8.03zM773.92 342.89c-10.82 0-21.44 5.23-27.87 14.9l-3.67 5.52c-0.6 0.91-0.54 1.81-0.45 2.27 0.09 0.46 0.38 1.32 1.29 1.92l139.01 92.43c1.38 0.92 3.27 0.54 4.19-0.84l3.67-5.52c4.94-7.43 6.69-16.34 4.93-25.09-1.76-8.75-6.82-16.29-14.25-21.23l-88.41-58.79a33.286 33.286 0 0 0-18.44-5.57z" fill="#333333" p-id="1192"></path><path d="M622.39 152.67m-15.9 0a15.9 15.9 0 1 0 31.8 0 15.9 15.9 0 1 0-31.8 0Z" fill="#FFFFFF" p-id="1193"></path><path d="M112.6 584.59m-11.24 0a11.24 11.24 0 1 0 22.48 0 11.24 11.24 0 1 0-22.48 0Z" fill="#FFFFFF" p-id="1194"></path><path d="M321.62 163.9l-3.61-2.51-4.39-0.16 2.5-3.61 0.16-4.39 3.61 2.5 4.39 0.17-2.5 3.6zM165.39 354.01l-3.61-2.51-4.39-0.16 2.51-3.61 0.16-4.39 3.61 2.51 4.39 0.16-2.51 3.61zM389.07 233.52l-10.43-7.24-12.7-0.47 7.24-10.44 0.47-12.7 10.44 7.25 12.7 0.47-7.25 10.43z" fill="#FFFFFF" p-id="1195"></path></svg>